<svg width="24" height="24" viewBox="0 0 24 24" fill="none" xmlns="http://www.w3.org/2000/svg">
<g id="Group 34057">
<path id="Vector 21" d="M20.16 0H3.84C1.71923 0 0 1.71923 0 3.84V20.16C0 22.2808 1.71923 24 3.84 24H20.16C22.2808 24 24 22.2808 24 20.16V3.84C24 1.71923 22.2808 0 20.16 0Z" fill="#876AFD"/>
<path id="Vector 22" d="M12.48 4.80005H11.52C10.9898 4.80005 10.56 5.22986 10.56 5.76005V9.60005C10.56 10.1302 10.1302 10.56 9.59999 10.56H5.75999C5.22979 10.56 4.79999 10.9899 4.79999 11.52V12.48C4.79999 13.0102 5.22979 13.44 5.75999 13.44H9.59999C10.1302 13.44 10.56 13.8699 10.56 14.4V18.24C10.56 18.7702 10.9898 19.2 11.52 19.2H12.48C13.0102 19.2 13.44 18.7702 13.44 18.24V14.4C13.44 13.8699 13.8698 13.44 14.4 13.44H18.24C18.7702 13.44 19.2 13.0102 19.2 12.48V11.52C19.2 10.9899 18.7702 10.56 18.24 10.56H14.4C13.8698 10.56 13.44 10.1302 13.44 9.60005V5.76005C13.44 5.22986 13.0102 4.80005 12.48 4.80005Z" fill="#5D3EDE"/>
</g>
</svg>
