<svg width="19" height="19" viewBox="0 0 19 19" fill="none" xmlns="http://www.w3.org/2000/svg">
<path id="Basketball" fill-rule="evenodd" clip-rule="evenodd" d="M17.7963 12.5217C18.0318 11.7177 18.1582 10.867 18.1582 9.98682C18.1582 9.07737 18.0233 8.19943 17.7724 7.37192C17.5283 7.42031 17.2928 7.47088 17.0657 7.52354C14.824 8.04319 13.3947 8.76567 12.5426 9.59454C12.4075 9.72592 12.2869 9.85998 12.1799 9.99632C12.0697 10.1367 11.9738 10.2796 11.8914 10.4244L12.37 10.5944L12.8552 10.7668L16.8713 12.1932L17.7963 12.5217ZM17.4618 13.4641L12.495 11.7L12.0148 11.5295L11.5567 11.3668L11.5389 11.3605C11.5047 11.5287 11.4842 11.6984 11.4762 11.8688C11.4679 12.0467 11.4731 12.2254 11.4902 12.4044C11.6471 14.0452 12.8073 15.7056 13.7413 16.8819C13.9023 17.0847 14.0566 17.2731 14.1979 17.4446C15.6383 16.4693 16.7812 15.0876 17.4618 13.4641ZM12.986 18.1346C10.8801 15.6153 10.0666 13.5571 10.0783 11.898C10.0795 11.722 10.0901 11.5504 10.1093 11.3833C10.129 11.212 10.158 11.0454 10.1954 10.8833L10.1952 10.8832L9.94027 10.7927L9.7215 10.715L9.4691 10.6253L9.43955 10.7085L9.30176 11.0965L9.13441 11.5677L9.08134 11.7171L6.95893 17.6928L6.62744 18.6261C7.43024 18.8609 8.27952 18.9868 9.1582 18.9868C10.527 18.9868 11.8244 18.6812 12.986 18.1346ZM5.87032 18.3673L6.42349 18.5638C6.23637 18.5042 6.05191 18.4386 5.87032 18.3673ZM5.68475 18.2921L6.01649 17.3581L8.1389 11.3823L8.19197 11.2329L8.35931 10.7618L8.49711 10.3738L8.52666 10.2906L8.27426 10.201L8.05549 10.1233L7.80053 10.0327L7.80033 10.0326C7.72717 10.182 7.64449 10.3296 7.55176 10.4749C7.46129 10.6168 7.36126 10.7565 7.25119 10.8939C6.2127 12.1899 4.28053 13.2747 1.05163 13.901C2.00514 15.8722 3.65645 17.4428 5.68475 18.2921ZM0.543961 12.6017C0.293095 11.7742 0.158203 10.8963 0.158203 9.98682C0.158203 9.10496 0.285035 8.25273 0.521453 7.44736L1.45925 7.78044L5.5008 9.21589L5.981 9.38645L6.43908 9.54914L6.45684 9.55545C6.3773 9.70762 6.28615 9.85214 6.18485 9.98945C6.07914 10.1327 5.96238 10.2681 5.83621 10.3962C4.67943 11.5705 2.73183 12.1271 1.2651 12.4507C1.00761 12.5075 0.764932 12.5572 0.543961 12.6017ZM0.818538 6.59672L0.548772 7.3561C0.627585 7.09785 0.717699 6.84453 0.818538 6.59672ZM0.8564 6.50513L5.80994 8.26449L6.29518 8.43683L6.77377 8.60681C6.80114 8.44239 6.81689 8.27109 6.81994 8.09261C6.8229 7.91931 6.81389 7.73923 6.79195 7.55207C6.65352 6.37137 6.00022 4.90923 4.5885 3.09199C4.44368 2.90557 4.29088 2.71541 4.12984 2.52143C2.68535 3.49629 1.53905 4.87934 0.8564 6.50513ZM5.35107 1.82935C6.8138 3.39965 8.28382 5.78538 8.25649 8.06342C8.25437 8.23998 8.24326 8.4159 8.22245 8.59075C8.20249 8.7584 8.17362 8.92507 8.13522 9.09037L8.39018 9.18092L8.60911 9.25868L8.86135 9.34827L8.89062 9.26586L9.02869 8.8771L9.19604 8.40594L9.25208 8.24815L11.3715 2.2808L11.7017 1.35125C10.8951 1.11407 10.0415 0.986816 9.1582 0.986816C7.79751 0.986816 6.50735 1.28878 5.35107 1.82935ZM12.2074 1.51648L12.1348 1.49068C12.159 1.49918 12.1832 1.50778 12.2074 1.51648ZM12.6439 1.68668L12.314 2.61553L10.1945 8.58288L10.1385 8.74067L9.97114 9.21183L9.83306 9.6006L9.80379 9.683L10.056 9.77259L10.275 9.85034L10.5299 9.9409C10.6044 9.78841 10.6871 9.64087 10.7774 9.49819C10.8715 9.34939 10.9739 9.20587 11.0836 9.06752C12.4971 7.28533 15.1368 6.36144 17.2606 6.06413C16.3084 4.1009 14.6637 2.53592 12.6439 1.68668Z" fill="white"/>
</svg>
