<svg width="19" height="17" viewBox="0 0 19 17" fill="none" xmlns="http://www.w3.org/2000/svg">
<g id="Calender">
<g id="Subtract">
<mask id="path-1-inside-1_2234_12" fill="white">
<path fill-rule="evenodd" clip-rule="evenodd" d="M0.105225 4.47363H18.8947V14.3158C18.8947 15.7982 17.693 17 16.2105 17H2.78944C1.30699 17 0.105225 15.7982 0.105225 14.3158V4.47363ZM8.35785 7.15777H10.6421C10.7525 7.15777 10.8421 7.24732 10.8421 7.35777V9.64199C10.8421 9.75244 10.7525 9.84199 10.6421 9.84199H8.35785C8.24739 9.84199 8.15785 9.75244 8.15785 9.64199V7.35777C8.15785 7.24732 8.24739 7.15777 8.35785 7.15777ZM5.27367 7.15796H2.98945C2.87899 7.15796 2.78945 7.2475 2.78945 7.35796V9.64217C2.78945 9.75263 2.879 9.84217 2.98945 9.84217H5.27367C5.38412 9.84217 5.47367 9.75263 5.47367 9.64217V7.35796C5.47367 7.2475 5.38412 7.15796 5.27367 7.15796ZM5.27369 11.6316H2.98948C2.87902 11.6316 2.78947 11.7211 2.78947 11.8316V14.1158C2.78947 14.2262 2.87902 14.3158 2.98948 14.3158H5.27369C5.38415 14.3158 5.47369 14.2262 5.47369 14.1158V11.8316C5.47369 11.7211 5.38415 11.6316 5.27369 11.6316ZM10.6421 11.6316H8.35785C8.24739 11.6316 8.15785 11.7211 8.15785 11.8316V14.1158C8.15785 14.2262 8.24739 14.3158 8.35785 14.3158H10.6421C10.7525 14.3158 10.8421 14.2262 10.8421 14.1158V11.8316C10.8421 11.7211 10.7525 11.6316 10.6421 11.6316ZM13.7263 7.15777H16.0105C16.121 7.15777 16.2105 7.24732 16.2105 7.35777V9.64199C16.2105 9.75244 16.121 9.84199 16.0105 9.84199H13.7263C13.6158 9.84199 13.5263 9.75244 13.5263 9.64199V7.35777C13.5263 7.24732 13.6158 7.15777 13.7263 7.15777ZM16.0105 11.6316H13.7263C13.6158 11.6316 13.5263 11.7211 13.5263 11.8316V14.1158C13.5263 14.2262 13.6158 14.3158 13.7263 14.3158H16.0105C16.121 14.3158 16.2105 14.2262 16.2105 14.1158V11.8316C16.2105 11.7211 16.121 11.6316 16.0105 11.6316Z"/>
</mask>
<path fill-rule="evenodd" clip-rule="evenodd" d="M0.105225 4.47363H18.8947V14.3158C18.8947 15.7982 17.693 17 16.2105 17H2.78944C1.30699 17 0.105225 15.7982 0.105225 14.3158V4.47363ZM8.35785 7.15777H10.6421C10.7525 7.15777 10.8421 7.24732 10.8421 7.35777V9.64199C10.8421 9.75244 10.7525 9.84199 10.6421 9.84199H8.35785C8.24739 9.84199 8.15785 9.75244 8.15785 9.64199V7.35777C8.15785 7.24732 8.24739 7.15777 8.35785 7.15777ZM5.27367 7.15796H2.98945C2.87899 7.15796 2.78945 7.2475 2.78945 7.35796V9.64217C2.78945 9.75263 2.879 9.84217 2.98945 9.84217H5.27367C5.38412 9.84217 5.47367 9.75263 5.47367 9.64217V7.35796C5.47367 7.2475 5.38412 7.15796 5.27367 7.15796ZM5.27369 11.6316H2.98948C2.87902 11.6316 2.78947 11.7211 2.78947 11.8316V14.1158C2.78947 14.2262 2.87902 14.3158 2.98948 14.3158H5.27369C5.38415 14.3158 5.47369 14.2262 5.47369 14.1158V11.8316C5.47369 11.7211 5.38415 11.6316 5.27369 11.6316ZM10.6421 11.6316H8.35785C8.24739 11.6316 8.15785 11.7211 8.15785 11.8316V14.1158C8.15785 14.2262 8.24739 14.3158 8.35785 14.3158H10.6421C10.7525 14.3158 10.8421 14.2262 10.8421 14.1158V11.8316C10.8421 11.7211 10.7525 11.6316 10.6421 11.6316ZM13.7263 7.15777H16.0105C16.121 7.15777 16.2105 7.24732 16.2105 7.35777V9.64199C16.2105 9.75244 16.121 9.84199 16.0105 9.84199H13.7263C13.6158 9.84199 13.5263 9.75244 13.5263 9.64199V7.35777C13.5263 7.24732 13.6158 7.15777 13.7263 7.15777ZM16.0105 11.6316H13.7263C13.6158 11.6316 13.5263 11.7211 13.5263 11.8316V14.1158C13.5263 14.2262 13.6158 14.3158 13.7263 14.3158H16.0105C16.121 14.3158 16.2105 14.2262 16.2105 14.1158V11.8316C16.2105 11.7211 16.121 11.6316 16.0105 11.6316Z" fill="#5D3EDE"/>
<path d="M18.8947 4.47363H20.3947V2.97363H18.8947V4.47363ZM0.105225 4.47363V2.97363H-1.39478V4.47363H0.105225ZM18.8947 2.97363H0.105225V5.97363H18.8947V2.97363ZM20.3947 14.3158V4.47363H17.3947V14.3158H20.3947ZM16.2105 18.5C18.5214 18.5 20.3947 16.6266 20.3947 14.3158H17.3947C17.3947 14.9698 16.8645 15.5 16.2105 15.5V18.5ZM2.78944 18.5H16.2105V15.5H2.78944V18.5ZM-1.39478 14.3158C-1.39478 16.6266 0.478561 18.5 2.78944 18.5V15.5C2.13542 15.5 1.60522 14.9698 1.60522 14.3158H-1.39478ZM-1.39478 4.47363V14.3158H1.60522V4.47363H-1.39478ZM10.6421 5.65777H8.35785V8.65777H10.6421V5.65777ZM12.3421 7.35777C12.3421 6.41889 11.5809 5.65777 10.6421 5.65777V8.65777C9.92409 8.65777 9.34206 8.07574 9.34206 7.35777H12.3421ZM12.3421 9.64199V7.35777H9.34206V9.64199H12.3421ZM10.6421 11.342C11.581 11.342 12.3421 10.5809 12.3421 9.64199H9.34206C9.34206 8.92402 9.92408 8.34199 10.6421 8.34199V11.342ZM8.35785 11.342H10.6421V8.34199H8.35785V11.342ZM6.65785 9.64199C6.65785 10.5809 7.41896 11.342 8.35785 11.342V8.34199C9.07581 8.34199 9.65785 8.92402 9.65785 9.64199H6.65785ZM6.65785 7.35777V9.64199H9.65785V7.35777H6.65785ZM8.35785 5.65777C7.41896 5.65777 6.65785 6.41889 6.65785 7.35777H9.65785C9.65785 8.07574 9.07582 8.65777 8.35785 8.65777V5.65777ZM2.98945 8.65796H5.27367V5.65796H2.98945V8.65796ZM4.28945 7.35796C4.28945 8.07593 3.70742 8.65796 2.98945 8.65796V5.65796C2.05057 5.65796 1.28945 6.41908 1.28945 7.35796H4.28945ZM4.28945 9.64217V7.35796H1.28945V9.64217H4.28945ZM2.98945 8.34217C3.70742 8.34217 4.28945 8.9242 4.28945 9.64217H1.28945C1.28945 10.5811 2.05057 11.3422 2.98945 11.3422V8.34217ZM5.27367 8.34217H2.98945V11.3422H5.27367V8.34217ZM3.97367 9.64217C3.97367 8.9242 4.5557 8.34217 5.27367 8.34217V11.3422C6.21255 11.3422 6.97367 10.5811 6.97367 9.64217H3.97367ZM3.97367 7.35796V9.64217H6.97367V7.35796H3.97367ZM5.27367 8.65796C4.5557 8.65796 3.97367 8.07593 3.97367 7.35796H6.97367C6.97367 6.41907 6.21255 5.65796 5.27367 5.65796V8.65796ZM2.98948 13.1316H5.27369V10.1316H2.98948V13.1316ZM4.28947 11.8316C4.28947 12.5495 3.70745 13.1316 2.98948 13.1316V10.1316C2.05059 10.1316 1.28947 10.8927 1.28947 11.8316H4.28947ZM4.28947 14.1158V11.8316H1.28947V14.1158H4.28947ZM2.98948 12.8158C3.70744 12.8158 4.28947 13.3978 4.28947 14.1158H1.28947C1.28947 15.0547 2.0506 15.8158 2.98948 15.8158V12.8158ZM5.27369 12.8158H2.98948V15.8158H5.27369V12.8158ZM3.97369 14.1158C3.97369 13.3978 4.55572 12.8158 5.27369 12.8158V15.8158C6.21257 15.8158 6.97369 15.0547 6.97369 14.1158H3.97369ZM3.97369 11.8316V14.1158H6.97369V11.8316H3.97369ZM5.27369 13.1316C4.55572 13.1316 3.97369 12.5495 3.97369 11.8316H6.97369C6.97369 10.8927 6.21257 10.1316 5.27369 10.1316V13.1316ZM8.35785 13.1316H10.6421V10.1316H8.35785V13.1316ZM9.65785 11.8316C9.65785 12.5495 9.07582 13.1316 8.35785 13.1316V10.1316C7.41896 10.1316 6.65785 10.8927 6.65785 11.8316H9.65785ZM9.65785 14.1158V11.8316H6.65785V14.1158H9.65785ZM8.35785 12.8158C9.07581 12.8158 9.65785 13.3978 9.65785 14.1158H6.65785C6.65785 15.0547 7.41897 15.8158 8.35785 15.8158V12.8158ZM10.6421 12.8158H8.35785V15.8158H10.6421V12.8158ZM9.34206 14.1158C9.34206 13.3978 9.92409 12.8158 10.6421 12.8158V15.8158C11.5809 15.8158 12.3421 15.0547 12.3421 14.1158H9.34206ZM9.34206 11.8316V14.1158H12.3421V11.8316H9.34206ZM10.6421 13.1316C9.92409 13.1316 9.34206 12.5495 9.34206 11.8316H12.3421C12.3421 10.8927 11.5809 10.1316 10.6421 10.1316V13.1316ZM16.0105 5.65777H13.7263V8.65777H16.0105V5.65777ZM17.7105 7.35777C17.7105 6.41888 16.9494 5.65777 16.0105 5.65777V8.65777C15.2926 8.65777 14.7105 8.07575 14.7105 7.35777H17.7105ZM17.7105 9.64199V7.35777H14.7105V9.64199H17.7105ZM16.0105 11.342C16.9494 11.342 17.7105 10.5809 17.7105 9.64199H14.7105C14.7105 8.92402 15.2925 8.34199 16.0105 8.34199V11.342ZM13.7263 11.342H16.0105V8.34199H13.7263V11.342ZM12.0263 9.64199C12.0263 10.5809 12.7874 11.342 13.7263 11.342V8.34199C14.4443 8.34199 15.0263 8.92402 15.0263 9.64199H12.0263ZM12.0263 7.35777V9.64199H15.0263V7.35777H12.0263ZM13.7263 5.65777C12.7874 5.65777 12.0263 6.41889 12.0263 7.35777H15.0263C15.0263 8.07574 14.4443 8.65777 13.7263 8.65777V5.65777ZM13.7263 13.1316H16.0105V10.1316H13.7263V13.1316ZM15.0263 11.8316C15.0263 12.5495 14.4443 13.1316 13.7263 13.1316V10.1316C12.7874 10.1316 12.0263 10.8927 12.0263 11.8316H15.0263ZM15.0263 14.1158V11.8316H12.0263V14.1158H15.0263ZM13.7263 12.8158C14.4443 12.8158 15.0263 13.3978 15.0263 14.1158H12.0263C12.0263 15.0547 12.7874 15.8158 13.7263 15.8158V12.8158ZM16.0105 12.8158H13.7263V15.8158H16.0105V12.8158ZM14.7105 14.1158C14.7105 13.3978 15.2925 12.8158 16.0105 12.8158V15.8158C16.9494 15.8158 17.7105 15.0547 17.7105 14.1158H14.7105ZM14.7105 11.8316V14.1158H17.7105V11.8316H14.7105ZM16.0105 13.1316C15.2926 13.1316 14.7105 12.5496 14.7105 11.8316H17.7105C17.7105 10.8927 16.9494 10.1316 16.0105 10.1316V13.1316Z" fill="#5D3EDE" mask="url(#path-1-inside-1_2234_12)"/>
</g>
<path id="Vector 28" d="M17.8947 2.57895H15.7373C16.3173 2.27913 16.7226 1.68851 16.7603 1H17.5526C17.7416 1 17.8947 1.15317 17.8947 1.34211V2.57895ZM12.9765 1C13.0142 1.68851 13.4195 2.27913 13.9995 2.57895H4.55306C5.13305 2.27913 5.53834 1.68851 5.57604 1H12.9765ZM1.79231 1C1.83001 1.68852 2.23531 2.27913 2.8153 2.57895H1.10522V1.34211C1.10522 1.15317 1.25839 1 1.44733 1H1.79231Z" fill="#5D3EDE" stroke="#5D3EDE" stroke-width="2"/>
</g>
</svg>
