<svg width="48" height="48" viewBox="0 0 48 48" fill="none" xmlns="http://www.w3.org/2000/svg">
<g id="Date">
<rect id="surround" opacity="0.1" width="48" height="48" rx="10" fill="#668BE9"/>
<g id="Calender">
<g id="Subtract">
<mask id="path-2-inside-1_704_6712" fill="white">
<path fill-rule="evenodd" clip-rule="evenodd" d="M10 18.5789H37.6316V33.0525C37.6316 35.2326 35.8643 36.9999 33.6842 36.9999H13.9474C11.7673 36.9999 10 35.2326 10 33.0525V18.5789ZM22.042 22.5261H25.5894C25.6999 22.5261 25.7894 22.6157 25.7894 22.7261V26.2735C25.7894 26.3839 25.6999 26.4735 25.5894 26.4735H22.042C21.9316 26.4735 21.842 26.3839 21.842 26.2735V22.7261C21.842 22.6157 21.9316 22.5261 22.042 22.5261ZM17.6948 22.5264H14.1474C14.0369 22.5264 13.9474 22.6159 13.9474 22.7264V26.2737C13.9474 26.3842 14.0369 26.4737 14.1474 26.4737H17.6948C17.8052 26.4737 17.8948 26.3842 17.8948 26.2737V22.7264C17.8948 22.6159 17.8052 22.5264 17.6948 22.5264ZM17.6948 29.1052H14.1474C14.0369 29.1052 13.9474 29.1948 13.9474 29.3052V32.8526C13.9474 32.963 14.0369 33.0526 14.1474 33.0526H17.6948C17.8052 33.0526 17.8948 32.963 17.8948 32.8526V29.3052C17.8948 29.1948 17.8052 29.1052 17.6948 29.1052ZM25.5894 29.1052H22.042C21.9316 29.1052 21.842 29.1948 21.842 29.3052V32.8526C21.842 32.963 21.9316 33.0526 22.042 33.0526H25.5894C25.6999 33.0526 25.7894 32.963 25.7894 32.8526V29.3052C25.7894 29.1948 25.6999 29.1052 25.5894 29.1052ZM29.9368 22.5261H33.4842C33.5946 22.5261 33.6842 22.6157 33.6842 22.7261V26.2735C33.6842 26.3839 33.5946 26.4735 33.4842 26.4735H29.9368C29.8264 26.4735 29.7368 26.3839 29.7368 26.2735V22.7261C29.7368 22.6157 29.8264 22.5261 29.9368 22.5261ZM33.4842 29.1052H29.9368C29.8264 29.1052 29.7368 29.1948 29.7368 29.3052V32.8526C29.7368 32.963 29.8264 33.0526 29.9368 33.0526H33.4842C33.5946 33.0526 33.6842 32.963 33.6842 32.8526V29.3052C33.6842 29.1948 33.5946 29.1052 33.4842 29.1052Z"/>
</mask>
<path fill-rule="evenodd" clip-rule="evenodd" d="M10 18.5789H37.6316V33.0525C37.6316 35.2326 35.8643 36.9999 33.6842 36.9999H13.9474C11.7673 36.9999 10 35.2326 10 33.0525V18.5789ZM22.042 22.5261H25.5894C25.6999 22.5261 25.7894 22.6157 25.7894 22.7261V26.2735C25.7894 26.3839 25.6999 26.4735 25.5894 26.4735H22.042C21.9316 26.4735 21.842 26.3839 21.842 26.2735V22.7261C21.842 22.6157 21.9316 22.5261 22.042 22.5261ZM17.6948 22.5264H14.1474C14.0369 22.5264 13.9474 22.6159 13.9474 22.7264V26.2737C13.9474 26.3842 14.0369 26.4737 14.1474 26.4737H17.6948C17.8052 26.4737 17.8948 26.3842 17.8948 26.2737V22.7264C17.8948 22.6159 17.8052 22.5264 17.6948 22.5264ZM17.6948 29.1052H14.1474C14.0369 29.1052 13.9474 29.1948 13.9474 29.3052V32.8526C13.9474 32.963 14.0369 33.0526 14.1474 33.0526H17.6948C17.8052 33.0526 17.8948 32.963 17.8948 32.8526V29.3052C17.8948 29.1948 17.8052 29.1052 17.6948 29.1052ZM25.5894 29.1052H22.042C21.9316 29.1052 21.842 29.1948 21.842 29.3052V32.8526C21.842 32.963 21.9316 33.0526 22.042 33.0526H25.5894C25.6999 33.0526 25.7894 32.963 25.7894 32.8526V29.3052C25.7894 29.1948 25.6999 29.1052 25.5894 29.1052ZM29.9368 22.5261H33.4842C33.5946 22.5261 33.6842 22.6157 33.6842 22.7261V26.2735C33.6842 26.3839 33.5946 26.4735 33.4842 26.4735H29.9368C29.8264 26.4735 29.7368 26.3839 29.7368 26.2735V22.7261C29.7368 22.6157 29.8264 22.5261 29.9368 22.5261ZM33.4842 29.1052H29.9368C29.8264 29.1052 29.7368 29.1948 29.7368 29.3052V32.8526C29.7368 32.963 29.8264 33.0526 29.9368 33.0526H33.4842C33.5946 33.0526 33.6842 32.963 33.6842 32.8526V29.3052C33.6842 29.1948 33.5946 29.1052 33.4842 29.1052Z" fill="#7254EE"/>
<path d="M37.6316 18.5789H39.1316V17.0789H37.6316V18.5789ZM10 18.5789V17.0789H8.5V18.5789H10ZM37.6316 17.0789H10V20.0789H37.6316V17.0789ZM39.1316 33.0525V18.5789H36.1316V33.0525H39.1316ZM33.6842 38.4999C36.6927 38.4999 39.1316 36.061 39.1316 33.0525H36.1316C36.1316 34.4042 35.0359 35.4999 33.6842 35.4999V38.4999ZM13.9474 38.4999H33.6842V35.4999H13.9474V38.4999ZM8.5 33.0525C8.5 36.061 10.9389 38.4999 13.9474 38.4999V35.4999C12.5957 35.4999 11.5 34.4042 11.5 33.0525H8.5ZM8.5 18.5789V33.0525H11.5V18.5789H8.5ZM25.5894 21.0261H22.042V24.0261H25.5894V21.0261ZM27.2894 22.7261C27.2894 21.7872 26.5283 21.0261 25.5894 21.0261V24.0261C24.8714 24.0261 24.2894 23.4441 24.2894 22.7261H27.2894ZM27.2894 26.2735V22.7261H24.2894V26.2735H27.2894ZM25.5894 27.9735C26.5283 27.9735 27.2894 27.2124 27.2894 26.2735H24.2894C24.2894 25.5555 24.8714 24.9735 25.5894 24.9735V27.9735ZM22.042 27.9735H25.5894V24.9735H22.042V27.9735ZM20.342 26.2735C20.342 27.2124 21.1032 27.9735 22.042 27.9735V24.9735C22.76 24.9735 23.342 25.5555 23.342 26.2735H20.342ZM20.342 22.7261V26.2735H23.342V22.7261H20.342ZM22.042 21.0261C21.1031 21.0261 20.342 21.7872 20.342 22.7261H23.342C23.342 23.4441 22.76 24.0261 22.042 24.0261V21.0261ZM14.1474 24.0264H17.6948V21.0264H14.1474V24.0264ZM15.4474 22.7264C15.4474 23.4443 14.8654 24.0264 14.1474 24.0264V21.0264C13.2085 21.0264 12.4474 21.7875 12.4474 22.7264H15.4474ZM15.4474 26.2737V22.7264H12.4474V26.2737H15.4474ZM14.1474 24.9737C14.8654 24.9737 15.4474 25.5558 15.4474 26.2737H12.4474C12.4474 27.2126 13.2085 27.9737 14.1474 27.9737V24.9737ZM17.6948 24.9737H14.1474V27.9737H17.6948V24.9737ZM16.3948 26.2737C16.3948 25.5558 16.9768 24.9737 17.6948 24.9737V27.9737C18.6336 27.9737 19.3948 27.2126 19.3948 26.2737H16.3948ZM16.3948 22.7264V26.2737H19.3948V22.7264H16.3948ZM17.6948 24.0264C16.9768 24.0264 16.3948 23.4443 16.3948 22.7264H19.3948C19.3948 21.7875 18.6336 21.0264 17.6948 21.0264V24.0264ZM14.1474 30.6052H17.6948V27.6052H14.1474V30.6052ZM15.4474 29.3052C15.4474 30.0232 14.8654 30.6052 14.1474 30.6052V27.6052C13.2085 27.6052 12.4474 28.3663 12.4474 29.3052H15.4474ZM15.4474 32.8526V29.3052H12.4474V32.8526H15.4474ZM14.1474 31.5526C14.8654 31.5526 15.4474 32.1346 15.4474 32.8526H12.4474C12.4474 33.7915 13.2085 34.5526 14.1474 34.5526V31.5526ZM17.6948 31.5526H14.1474V34.5526H17.6948V31.5526ZM16.3948 32.8526C16.3948 32.1346 16.9768 31.5526 17.6948 31.5526V34.5526C18.6336 34.5526 19.3948 33.7915 19.3948 32.8526H16.3948ZM16.3948 29.3052V32.8526H19.3948V29.3052H16.3948ZM17.6948 30.6052C16.9768 30.6052 16.3948 30.0232 16.3948 29.3052H19.3948C19.3948 28.3663 18.6336 27.6052 17.6948 27.6052V30.6052ZM22.042 30.6052H25.5894V27.6052H22.042V30.6052ZM23.342 29.3052C23.342 30.0232 22.76 30.6052 22.042 30.6052V27.6052C21.1031 27.6052 20.342 28.3664 20.342 29.3052H23.342ZM23.342 32.8526V29.3052H20.342V32.8526H23.342ZM22.042 31.5526C22.76 31.5526 23.342 32.1346 23.342 32.8526H20.342C20.342 33.7915 21.1032 34.5526 22.042 34.5526V31.5526ZM25.5894 31.5526H22.042V34.5526H25.5894V31.5526ZM24.2894 32.8526C24.2894 32.1346 24.8714 31.5526 25.5894 31.5526V34.5526C26.5283 34.5526 27.2894 33.7915 27.2894 32.8526H24.2894ZM24.2894 29.3052V32.8526H27.2894V29.3052H24.2894ZM25.5894 30.6052C24.8714 30.6052 24.2894 30.0232 24.2894 29.3052H27.2894C27.2894 28.3663 26.5283 27.6052 25.5894 27.6052V30.6052ZM33.4842 21.0261H29.9368V24.0261H33.4842V21.0261ZM35.1842 22.7261C35.1842 21.7872 34.4231 21.0261 33.4842 21.0261V24.0261C32.7662 24.0261 32.1842 23.4441 32.1842 22.7261H35.1842ZM35.1842 26.2735V22.7261H32.1842V26.2735H35.1842ZM33.4842 27.9735C34.4231 27.9735 35.1842 27.2124 35.1842 26.2735H32.1842C32.1842 25.5555 32.7662 24.9735 33.4842 24.9735V27.9735ZM29.9368 27.9735H33.4842V24.9735H29.9368V27.9735ZM28.2368 26.2735C28.2368 27.2124 28.9979 27.9735 29.9368 27.9735V24.9735C30.6548 24.9735 31.2368 25.5555 31.2368 26.2735H28.2368ZM28.2368 22.7261V26.2735H31.2368V22.7261H28.2368ZM29.9368 21.0261C28.9979 21.0261 28.2368 21.7872 28.2368 22.7261H31.2368C31.2368 23.4441 30.6548 24.0261 29.9368 24.0261V21.0261ZM29.9368 30.6052H33.4842V27.6052H29.9368V30.6052ZM31.2368 29.3052C31.2368 30.0232 30.6548 30.6052 29.9368 30.6052V27.6052C28.9979 27.6052 28.2368 28.3663 28.2368 29.3052H31.2368ZM31.2368 32.8526V29.3052H28.2368V32.8526H31.2368ZM29.9368 31.5526C30.6548 31.5526 31.2368 32.1346 31.2368 32.8526H28.2368C28.2368 33.7915 28.9979 34.5526 29.9368 34.5526V31.5526ZM33.4842 31.5526H29.9368V34.5526H33.4842V31.5526ZM32.1842 32.8526C32.1842 32.1346 32.7662 31.5526 33.4842 31.5526V34.5526C34.4231 34.5526 35.1842 33.7915 35.1842 32.8526H32.1842ZM32.1842 29.3052V32.8526H35.1842V29.3052H32.1842ZM33.4842 30.6052C32.7662 30.6052 32.1842 30.0232 32.1842 29.3052H35.1842C35.1842 28.3663 34.4231 27.6052 33.4842 27.6052V30.6052Z" fill="#7254EE" mask="url(#path-2-inside-1_704_6712)"/>
</g>
<path id="Vector 28" opacity="0.6" d="M36.6316 16.2632H11V13.9737C11 13.4359 11.4359 13 11.9737 13H12.9474V13.3158C12.9474 14.5948 13.9842 15.6316 15.2632 15.6316C16.5421 15.6316 17.5789 14.5948 17.5789 13.3158V13H29.3947V13.3158C29.3947 14.5948 30.4316 15.6316 31.7105 15.6316C32.9895 15.6316 34.0263 14.5948 34.0263 13.3158V13H35.6579C36.1956 13 36.6316 13.4359 36.6316 13.9737V16.2632Z" fill="#876AFD" stroke="#876AFD" stroke-width="2"/>
</g>
</g>
</svg>
