<svg width="57" height="52" viewBox="0 0 57 52" fill="none" xmlns="http://www.w3.org/2000/svg">
<g id="Logo">
<path id="Vector 19" d="M11.0905 51H51.0905C53.8519 51 56.0905 48.7614 56.0905 46C56.0905 43.2386 53.8519 41 51.0905 41H16.0905C13.329 41 11.0905 38.7614 11.0905 36C11.0905 33.2386 13.329 31 16.0905 31H51.0905C53.8519 31 56.0905 28.7614 56.0905 26C56.0905 23.2386 53.8519 21 51.0905 21H11.0905C5.56761 21 1.09045 25.4772 1.09045 31V41C1.09045 46.5228 5.56761 51 11.0905 51Z" stroke="#5D3EDE"/>
<path id="Vector 20" d="M1.09041 21V11V11C1.09041 5.47715 5.56757 1 11.0904 1H51.0904C53.8518 1 56.0904 3.23858 56.0904 6V6C56.0904 8.76142 53.8518 11 51.0904 11H11.0004C5.49204 11 1.04062 15.4918 1.09041 21V21Z" stroke="#00ECAA" stroke-linejoin="round"/>
</g>
</svg>
