<svg width="12" height="16" viewBox="0 0 12 16" fill="none" xmlns="http://www.w3.org/2000/svg">
<g id="Map Pin">
<path id="Vector" d="M12 6.66675C12 11.3334 6 15.3334 6 15.3334C6 15.3334 0 11.3334 0 6.66675C2.37122e-08 5.07545 0.632141 3.54933 1.75736 2.42411C2.88258 1.29889 4.4087 0.666748 6 0.666748C7.5913 0.666748 9.11742 1.29889 10.2426 2.42411C11.3679 3.54933 12 5.07545 12 6.66675Z" fill="#716E90"/>
<path id="Vector_2" d="M6 8.66675C7.10457 8.66675 8 7.77132 8 6.66675C8 5.56218 7.10457 4.66675 6 4.66675C4.89543 4.66675 4 5.56218 4 6.66675C4 7.77132 4.89543 8.66675 6 8.66675Z" fill="white"/>
</g>
</svg>
