<svg width="36" height="40" viewBox="0 0 36 40" fill="none" xmlns="http://www.w3.org/2000/svg">
<path id="Icon" d="M10.9375 8.77778L35 1V25.4444V27.852C35 29.192 34.6923 30.5141 34.1005 31.7164L33.671 32.589C33.1138 33.7213 32.2043 34.6423 31.0791 35.2138C29.419 36.057 27.456 36.057 25.7959 35.2138C24.6707 34.6423 23.7612 33.7213 23.204 32.589L23.1793 32.5388C22.3569 30.8679 22.3569 28.9099 23.1793 27.2389L23.204 27.1888C23.7612 26.0565 24.6707 25.1355 25.7959 24.564C27.456 23.7207 29.419 23.7207 31.0791 24.564L32.6808 25.3775C32.7411 25.4082 32.8125 25.3643 32.8125 25.2967V13.6405C32.8125 13.4352 32.6108 13.2905 32.4163 13.3564L13.3288 19.8199C13.207 19.8611 13.125 19.9754 13.125 20.104V31V31.1853C13.125 32.5253 12.8173 33.8475 12.2255 35.0498L11.796 35.9223C11.2388 37.0546 10.3293 37.9756 9.20411 38.5471C7.54398 39.3904 5.58102 39.3904 3.92089 38.5471C2.79572 37.9756 1.88625 37.0546 1.32896 35.9223L1.30427 35.8722C0.481865 34.2012 0.481865 32.2432 1.30427 30.5723L1.32896 30.5221C1.88625 29.3898 2.79572 28.4688 3.92089 27.8973C5.58102 27.0541 7.54398 27.0541 9.20411 27.8973L10.8773 28.7472C10.9049 28.7612 10.9375 28.7412 10.9375 28.7103V8.77778Z" fill="black" stroke="black" stroke-width="0.5"/>
</svg>
