<svg width="17" height="19" viewBox="0 0 17 19" fill="none" xmlns="http://www.w3.org/2000/svg">
<path id="Vector 38" d="M5.7301 4.5L16.7301 1V12V13.0729C16.7301 13.6826 16.5882 14.2839 16.3155 14.8292L16.1301 15.2C15.8705 15.7193 15.4494 16.1404 14.9301 16.4C14.1747 16.7777 13.2855 16.7777 12.5301 16.4C12.0108 16.1404 11.5897 15.7193 11.3301 15.2C10.9524 14.4446 10.9524 13.5554 11.3301 12.8C11.5897 12.2807 12.0108 11.8596 12.5301 11.6C13.2855 11.2223 14.1747 11.2223 14.9301 11.6L15.6694 11.9696C15.6973 11.9836 15.7301 11.9633 15.7301 11.9321V6.91623C15.7301 6.71146 15.5295 6.56687 15.3352 6.63162L6.93523 9.43162C6.81273 9.47246 6.7301 9.5871 6.7301 9.71623V14.5V14.5729C6.7301 15.1826 6.58816 15.7839 6.31551 16.3292L6.1301 16.7C5.87046 17.2193 5.44939 17.6404 4.9301 17.9C4.17468 18.2777 3.28552 18.2777 2.5301 17.9C2.01081 17.6404 1.58975 17.2193 1.3301 16.7C0.952394 15.9446 0.952394 15.0554 1.3301 14.3C1.58975 13.7807 2.01081 13.3596 2.5301 13.1C3.28552 12.7223 4.17468 12.7223 4.9301 13.1L5.70235 13.4861C5.7151 13.4925 5.7301 13.4832 5.7301 13.469V4.5Z" fill="#1F1F1F" stroke="#1F1F1F" stroke-width="0.5"/>
</svg>
