<svg width="22" height="22" viewBox="0 0 22 22" fill="none" xmlns="http://www.w3.org/2000/svg">
<g id="edit" clip-path="url(#clip0_950_766)">
<path id="Vector" d="M10.0833 3.66675H3.66665C3.18042 3.66675 2.7141 3.8599 2.37028 4.20372C2.02647 4.54754 1.83331 5.01385 1.83331 5.50008V18.3334C1.83331 18.8196 2.02647 19.286 2.37028 19.6298C2.7141 19.9736 3.18042 20.1667 3.66665 20.1667H16.5C16.9862 20.1667 17.4525 19.9736 17.7963 19.6298C18.1402 19.286 18.3333 18.8196 18.3333 18.3334V11.9167" stroke="#5D3EDE" stroke-width="2" stroke-linecap="round" stroke-linejoin="round"/>
<path id="Vector_2" d="M16.9583 2.29171C17.323 1.92704 17.8176 1.72217 18.3333 1.72217C18.849 1.72217 19.3436 1.92704 19.7083 2.29171C20.073 2.65638 20.2779 3.15099 20.2779 3.66671C20.2779 4.18244 20.073 4.67704 19.7083 5.04171L11 13.75L7.33331 14.6667L8.24998 11L16.9583 2.29171Z" stroke="#5D3EDE" stroke-width="2" stroke-linecap="round" stroke-linejoin="round"/>
</g>
<defs>
<clipPath id="clip0_950_766">
<rect width="22" height="22" fill="white"/>
</clipPath>
</defs>
</svg>
