<svg width="20" height="20" viewBox="0 0 20 20" fill="none" xmlns="http://www.w3.org/2000/svg">
<g id="Vector 23">
<path d="M19 0H1C0.447715 0 0 0.447716 0 1V4.45455C0 5.00683 0.447716 5.45455 1 5.45455H19C19.5523 5.45455 20 5.00683 20 4.45455V1C20 0.447715 19.5523 0 19 0Z" fill="#A6A6A6"/>
<path d="M13.5455 7.27273H1C0.447715 7.27273 0 7.72044 0 8.27273V11.7273C0 12.2796 0.447717 12.7273 1 12.7273H13.5455C14.0977 12.7273 14.5455 12.2796 14.5455 11.7273V8.27273C14.5455 7.72044 14.0977 7.27273 13.5455 7.27273Z" fill="#A6A6A6"/>
<path d="M0 15.5455V19C0 19.5523 0.447715 20 1 20H8.09091C8.64319 20 9.09091 19.5523 9.09091 19V15.5455C9.09091 14.9932 8.64319 14.5455 8.09091 14.5455H1C0.447715 14.5455 0 14.9932 0 15.5455Z" fill="#A6A6A6"/>
</g>
</svg>
