<svg width="13" height="19" viewBox="0 0 13 19" fill="none" xmlns="http://www.w3.org/2000/svg">
<g id="Vector">
<path d="M9.5155 11.5553L15.461 17.9963C15.4633 17.9987 15.4664 18.0001 15.4697 18.0001C16.5714 18.0001 17.4645 17.1067 17.4645 16.0049C17.4645 16.0018 17.4633 15.9988 17.4611 15.9966L2.0236 0.559157C1.99926 0.534815 1.95757 0.54871 1.9527 0.582789C1.64279 2.75215 2.29463 4.94877 3.73766 6.59796L8.31189 11.8256C8.40179 11.9284 8.54972 11.9575 8.67183 11.8964L9.39729 11.5337C9.43711 11.5138 9.4853 11.5226 9.5155 11.5553Z" fill="white"/>
<path d="M7.25239 12.7879L5.67665 11.2122C5.55949 11.0951 5.36954 11.0951 5.25239 11.2122L1.0175 15.4471C0.982952 15.4816 0.959405 15.5256 0.949824 15.5735C0.718955 16.7279 1.7367 17.7456 2.89105 17.5148C2.93895 17.5052 2.98295 17.4816 3.0175 17.4471L7.25239 13.2122C7.36954 13.0951 7.36954 12.9051 7.25239 12.7879Z" fill="white"/>
<path d="M11.8246 8.3602L10.1044 6.63996C10.0195 6.5551 9.99342 6.42783 10.038 6.31641L10.9416 4.05725C10.9567 4.01953 10.9793 3.98526 11.0081 3.95654L13.7524 1.21221C13.8695 1.09505 14.0595 1.09505 14.1766 1.21221L14.2524 1.28795C14.3695 1.4051 14.3695 1.59505 14.2524 1.71221L12.1767 3.78795C12.0595 3.9051 12.0595 4.09505 12.1766 4.21221L12.7524 4.78795C12.8695 4.9051 13.0595 4.9051 13.1766 4.78795L15.2524 2.71221C15.3695 2.59505 15.5595 2.59505 15.6766 2.71221L15.7524 2.78795C15.8695 2.9051 15.8695 3.09505 15.7524 3.21221L13.6767 5.28795C13.5595 5.4051 13.5595 5.59505 13.6766 5.71221L14.2524 6.28795C14.3695 6.4051 14.5595 6.4051 14.6766 6.28795L16.7524 4.21221C16.8695 4.09505 17.0595 4.09505 17.1766 4.21221L17.2524 4.28795C17.3695 4.4051 17.3695 4.59505 17.2524 4.71221L14.5081 7.45654C14.4793 7.48526 14.4451 7.50786 14.4073 7.52295L12.1482 8.42661C12.0368 8.47118 11.9095 8.44506 11.8246 8.3602Z" fill="white"/>
<path d="M9.5155 11.5553L15.461 17.9963C15.4633 17.9987 15.4664 18.0001 15.4697 18.0001C16.5714 18.0001 17.4645 17.1067 17.4645 16.0049C17.4645 16.0018 17.4633 15.9988 17.4611 15.9966L2.0236 0.559157C1.99926 0.534815 1.95757 0.54871 1.9527 0.582789C1.64279 2.75215 2.29463 4.94877 3.73766 6.59796L8.31189 11.8256C8.40179 11.9284 8.54972 11.9575 8.67183 11.8964L9.39729 11.5337C9.43711 11.5138 9.4853 11.5226 9.5155 11.5553Z" stroke="white" stroke-width="0.5"/>
<path d="M7.25239 12.7879L5.67665 11.2122C5.55949 11.0951 5.36954 11.0951 5.25239 11.2122L1.0175 15.4471C0.982952 15.4816 0.959405 15.5256 0.949824 15.5735C0.718955 16.7279 1.7367 17.7456 2.89105 17.5148C2.93895 17.5052 2.98295 17.4816 3.0175 17.4471L7.25239 13.2122C7.36954 13.0951 7.36954 12.9051 7.25239 12.7879Z" stroke="white" stroke-width="0.5"/>
<path d="M11.8246 8.3602L10.1044 6.63996C10.0195 6.5551 9.99342 6.42783 10.038 6.31641L10.9416 4.05725C10.9567 4.01953 10.9793 3.98526 11.0081 3.95654L13.7524 1.21221C13.8695 1.09505 14.0595 1.09505 14.1766 1.21221L14.2524 1.28795C14.3695 1.4051 14.3695 1.59505 14.2524 1.71221L12.1767 3.78795C12.0595 3.9051 12.0595 4.09505 12.1766 4.21221L12.7524 4.78795C12.8695 4.9051 13.0595 4.9051 13.1766 4.78795L15.2524 2.71221C15.3695 2.59505 15.5595 2.59505 15.6766 2.71221L15.7524 2.78795C15.8695 2.9051 15.8695 3.09505 15.7524 3.21221L13.6767 5.28795C13.5595 5.4051 13.5595 5.59505 13.6766 5.71221L14.2524 6.28795C14.3695 6.4051 14.5595 6.4051 14.6766 6.28795L16.7524 4.21221C16.8695 4.09505 17.0595 4.09505 17.1766 4.21221L17.2524 4.28795C17.3695 4.4051 17.3695 4.59505 17.2524 4.71221L14.5081 7.45654C14.4793 7.48526 14.4451 7.50786 14.4073 7.52295L12.1482 8.42661C12.0368 8.47118 11.9095 8.44506 11.8246 8.3602Z" stroke="white" stroke-width="0.5"/>
</g>
</svg>
