<svg width="19" height="19" viewBox="0 0 19 19" fill="none" xmlns="http://www.w3.org/2000/svg">
<g id="Vector">
<path d="M15.8155 5.85411C16.8026 6.54136 17.4396 7.61683 17.67 8.99955C17.9166 10.4994 17.6327 11.8424 17.5335 12.2521C15.7067 18.7614 7.39142 20.9376 2.6246 16.1341C-1.26928 12.3701 -0.672856 5.60391 3.78755 2.5243C4.70365 1.87816 6.32475 1.70732 7.04908 2.6168C7.93293 3.75082 6.81273 5.1021 7.05913 5.68362C7.53072 6.37893 8.96485 5.79181 10.1058 5.4386C10.2053 5.4078 10.2729 5.52842 10.1965 5.59917L7.60861 7.99379C6.83012 8.00869 6.05683 8.31253 5.46408 8.90497C4.51435 9.78015 4.15243 12.1591 4.07462 13.7748C4.04914 14.3039 4.47516 14.7299 5.00422 14.7044C6.61847 14.6266 8.99758 14.2653 9.87408 13.315C10.1447 13.0444 10.3595 12.7326 10.5126 12.3938L10.6993 11.6686C10.7891 11.3199 11.0625 11.0522 11.3928 10.9089C11.6279 10.8069 11.8835 10.6682 12.0386 10.5C13.4531 8.96574 15.3333 6.36142 15.6794 5.87809C15.7109 5.83421 15.7712 5.82327 15.8155 5.85411Z" fill="white"/>
<path d="M16.8738 2.7028L11.0593 9.85917C10.8337 10.1368 10.3906 10.056 10.2775 9.71668C10.1271 9.26552 9.77306 8.9115 9.3219 8.76112L9.29205 8.75117C8.9523 8.63792 8.85739 8.20245 9.1192 7.95809L15.7372 1.78131C15.9376 1.59429 16.1571 1.42891 16.3921 1.2879L18.1956 0.205806C18.2848 0.152245 18.3863 0.253737 18.3328 0.343005L17.173 2.27595C17.0835 2.42513 16.9835 2.56777 16.8738 2.7028Z" fill="white"/>
<path d="M5.28349 12.5204L5.04909 13.4579C5.04375 13.4793 5.05992 13.5 5.08195 13.5H5.45759C6.50199 13.5 7.53678 13.3007 8.50648 12.9128C9.12983 12.6635 9.53857 12.0598 9.53857 11.3884V11C9.53857 10.1716 8.867 9.50001 8.03857 9.50001H7.72289C6.99706 9.50001 6.33353 9.91009 6.00893 10.5593C5.6963 11.1846 5.45304 11.8422 5.28349 12.5204Z" fill="white"/>
</g>
</svg>
