<svg width="9" height="8" viewBox="0 0 9 8" fill="none" xmlns="http://www.w3.org/2000/svg">
<path id="Vector 25" d="M4.5 5L2.5 7C2.22386 7.27614 1.77614 7.27614 1.5 7C1.22386 6.72386 1.22386 6.27614 1.5 6L3.5 4L1.5 2C1.22386 1.72386 1.22386 1.27614 1.5 1C1.77614 0.723858 2.22386 0.723858 2.5 1L4.5 3L6.5 1C6.77614 0.723858 7.22386 0.723858 7.5 1C7.77614 1.27614 7.77614 1.72386 7.5 2L5.5 4L7.5 6C7.77614 6.27614 7.77614 6.72386 7.5 7C7.22386 7.27614 6.77614 7.27614 6.5 7L4.5 5Z" fill="#00ECAA" stroke="#00ECAA"/>
</svg>
