<?xml version="1.0" standalone="no"?>
<!DOCTYPE svg PUBLIC "-//W3C//DTD SVG 20010904//EN"
 "http://www.w3.org/TR/2001/REC-SVG-20010904/DTD/svg10.dtd">
<svg version="1.0" xmlns="http://www.w3.org/2000/svg"
 width="912.000000pt" height="912.000000pt" viewBox="0 0 912.000000 912.000000"
 preserveAspectRatio="xMidYMid meet">
<metadata>
Created by potrace 1.14, written by Peter Selinger 2001-2017
</metadata>
<g transform="translate(0.000000,912.000000) scale(0.100000,-0.100000)"
fill="#000000" stroke="none">
<path d="M1759 8645 c-2 -2 -45 -6 -94 -9 -50 -3 -101 -8 -115 -11 -13 -2 -42
-7 -65 -10 -22 -4 -76 -15 -120 -27 -44 -11 -87 -21 -95 -23 -24 -6 -180 -70
-240 -99 -273 -133 -515 -353 -679 -614 -132 -210 -222 -467 -247 -702 -9 -83
-10 -1795 -2 -1821 17 -50 81 -63 124 -26 24 21 27 31 29 103 10 292 93 558
245 787 25 38 50 76 55 84 73 111 319 330 450 400 22 11 57 30 78 42 20 11 39
21 42 21 3 0 18 6 34 14 29 16 200 75 236 82 127 26 195 35 277 39 54 3 101 5
105 6 5 1 13 0 18 -1 6 -1 39 -1 75 -1 36 1 71 1 78 1 6 0 19 0 27 0 8 0 22 0
30 0 8 0 23 0 33 0 25 0 72 -1 110 -3 17 -1 32 1 32 5 0 3 14 3 30 -2 17 -5
30 -5 30 0 0 5 13 5 30 0 18 -5 30 -5 30 0 0 6 10 6 25 0 15 -6 26 -6 30 0 4
6 13 7 24 1 10 -6 23 -6 31 -1 8 5 18 6 24 3 5 -4 66 -6 135 -5 69 1 132 2
139 2 6 0 40 0 75 0 34 0 76 1 92 3 17 1 37 -1 46 -4 8 -4 21 -4 29 1 7 4 24
4 36 0 14 -6 26 -5 29 0 4 6 13 7 24 1 10 -6 23 -6 31 -1 8 5 21 5 30 0 9 -5
23 -4 32 1 10 6 19 6 23 0 3 -6 15 -7 28 -2 12 5 32 5 44 0 13 -5 25 -4 28 1
4 6 13 7 24 1 10 -6 23 -6 31 -1 8 5 21 5 30 0 9 -5 23 -4 32 1 10 6 19 6 23
0 3 -7 15 -7 29 -1 13 5 26 6 30 3 3 -3 47 -5 98 -4 104 1 104 1 191 1 34 0
81 1 104 2 24 1 45 -1 49 -5 3 -3 17 -2 30 3 14 6 26 6 29 0 3 -6 15 -6 30 0
15 6 25 6 25 0 0 -5 12 -5 30 0 17 5 30 6 30 2 0 -8 58 -8 66 1 3 3 11 4 17 1
21 -8 107 -10 107 -3 0 4 14 4 30 -1 18 -5 30 -5 30 0 0 6 10 6 25 0 15 -6 26
-6 30 1 4 5 11 7 16 3 6 -3 56 -5 112 -5 129 1 125 1 200 1 34 0 76 1 92 3 17
1 37 -1 46 -4 8 -4 21 -4 29 1 7 4 24 4 36 0 14 -6 26 -5 29 0 4 6 13 7 24 1
10 -6 23 -6 31 -1 8 5 21 5 30 0 9 -5 23 -4 32 1 10 6 19 6 23 0 3 -6 15 -7
28 -2 12 5 32 5 44 0 13 -5 25 -4 28 1 4 6 13 7 24 1 10 -6 23 -6 31 -1 8 5
21 5 30 0 9 -5 23 -4 32 1 10 6 19 6 23 0 3 -7 15 -7 29 -1 13 5 26 6 30 3 3
-3 47 -5 98 -4 104 1 104 1 191 1 34 0 81 1 104 2 24 1 45 -1 49 -5 3 -3 17
-2 30 3 14 6 26 6 29 0 3 -6 15 -6 30 0 15 6 25 6 25 0 0 -5 12 -5 30 0 16 5
30 6 30 2 0 -8 58 -8 66 1 3 3 11 4 17 1 21 -8 107 -10 107 -3 0 4 14 4 30 -1
18 -5 30 -5 30 0 0 6 10 6 25 0 15 -6 26 -6 30 1 4 5 11 7 16 3 6 -3 56 -5
112 -5 129 1 125 1 200 1 34 0 76 1 92 3 17 1 37 -1 46 -4 8 -4 21 -4 29 1 7
4 24 4 36 0 14 -6 26 -5 29 1 4 6 13 6 23 0 9 -5 23 -6 32 -1 9 5 22 5 30 0 8
-5 21 -5 31 1 11 6 20 5 24 -1 3 -5 15 -6 28 -1 12 5 32 5 44 0 13 -5 25 -4
28 1 4 6 13 7 24 1 10 -6 23 -6 31 -1 8 5 21 5 30 0 9 -5 23 -4 32 1 10 6 19
6 23 0 3 -7 15 -7 29 -1 13 5 26 6 30 3 3 -3 47 -5 98 -4 51 1 101 1 111 1 33
0 147 0 182 0 19 0 42 0 50 0 8 0 22 0 30 0 8 0 23 0 33 0 25 0 72 -1 110 -3
17 -1 32 1 32 5 0 3 14 3 30 -2 17 -5 30 -5 30 0 0 5 13 5 30 0 18 -5 30 -5
30 0 0 6 10 6 23 1 13 -5 30 -5 37 -1 8 5 19 6 24 2 15 -9 116 -2 196 13 81
16 251 79 258 97 2 4 8 8 13 8 11 0 82 46 122 80 49 41 107 102 148 155 36 48
115 195 125 232 2 10 13 52 24 93 30 110 30 297 1 398 -5 17 -7 32 -4 32 3 0
0 7 -7 15 -7 8 -10 15 -7 15 8 0 -37 109 -69 167 -71 129 -200 261 -323 331
-66 38 -88 49 -106 55 -11 3 -39 13 -62 21 -22 8 -52 17 -65 20 -12 3 -34 8
-48 11 -47 11 -155 15 -425 14 -326 0 -376 1 -387 7 -4 3 -8 0 -8 -6 0 -6 -5
-8 -10 -5 -6 4 -86 6 -178 5 -92 0 -173 -1 -179 -1 -24 0 -103 0 -115 0 -7 0
-67 0 -133 1 -66 0 -166 1 -223 0 -56 -1 -107 2 -112 5 -6 3 -10 1 -10 -5 0
-6 -4 -8 -10 -5 -8 5 -439 7 -823 5 -59 -1 -112 2 -117 5 -6 3 -10 1 -10 -5 0
-6 -5 -8 -10 -5 -6 4 -86 6 -178 5 -92 0 -173 -1 -179 -1 -24 0 -103 0 -115 0
-7 0 -67 0 -133 1 -66 0 -166 1 -223 0 -56 -1 -107 2 -112 5 -6 3 -10 1 -10
-5 0 -6 -4 -8 -10 -5 -8 5 -439 7 -823 5 -59 -1 -112 2 -117 5 -6 3 -10 1 -10
-5 0 -6 -5 -8 -10 -5 -6 4 -86 6 -178 5 -92 0 -173 -1 -179 -1 -24 0 -103 0
-115 0 -7 0 -67 0 -133 1 -66 0 -166 1 -223 0 -56 -1 -107 2 -112 5 -6 3 -10
1 -10 -5 0 -6 -4 -8 -10 -5 -8 5 -439 7 -823 5 -59 -1 -111 1 -116 4 -4 3 -10
4 -12 1z m56 -164 c4 5 11 6 17 3 14 -9 148 -11 148 -2 0 4 13 3 29 -2 15 -4
34 -4 42 0 7 5 17 6 23 3 13 -9 66 -9 66 -1 0 4 13 3 29 -2 15 -4 34 -4 42 0
7 5 17 6 23 3 13 -9 66 -9 66 -1 0 4 13 3 29 -2 15 -4 34 -4 42 0 7 5 17 6 23
3 13 -9 66 -9 66 -1 0 4 13 3 29 -2 16 -4 32 -6 35 -3 7 8 84 8 92 0 3 -3 17
-2 30 3 14 6 26 6 29 0 3 -6 15 -6 30 0 15 6 25 6 25 0 0 -5 12 -5 30 0 17 5
30 5 30 0 0 -5 13 -5 30 0 17 5 30 5 30 0 0 -5 13 -5 30 0 17 5 32 5 35 0 3
-5 16 -5 30 0 15 6 25 6 25 0 0 -5 12 -5 30 0 17 5 30 5 30 0 0 -5 13 -5 30 0
17 5 30 5 30 0 0 -5 13 -5 30 0 17 5 32 5 35 0 3 -5 16 -5 30 0 17 6 25 6 25
-1 0 -6 5 -7 11 -3 14 8 134 8 148 0 6 -4 11 -3 11 3 0 6 11 6 30 1 17 -5 30
-5 30 0 0 5 13 5 30 0 17 -5 30 -6 30 -2 0 8 85 6 106 -2 8 -3 14 -1 14 4 0 5
13 5 30 0 17 -5 30 -5 30 0 0 5 13 5 30 0 17 -5 30 -5 30 0 0 5 6 7 14 4 21
-8 146 -10 146 -2 0 4 13 3 29 -2 15 -4 34 -4 42 0 7 5 17 6 23 3 13 -9 66 -9
66 -1 0 4 13 3 29 -2 15 -4 34 -4 42 0 7 5 17 6 23 3 13 -9 66 -9 66 -1 0 4
13 3 29 -2 15 -4 34 -4 42 0 7 5 17 6 23 3 13 -9 66 -9 66 -1 0 4 13 3 29 -2
16 -4 32 -6 35 -3 7 8 84 8 92 0 3 -3 17 -2 30 3 14 6 24 6 24 0 0 -5 12 -5
28 -1 15 5 37 5 49 0 13 -5 25 -4 28 1 4 6 13 7 24 1 10 -6 23 -6 31 -1 8 5
21 5 30 0 9 -5 22 -5 30 0 8 5 21 5 30 0 9 -5 22 -5 30 0 7 4 24 4 36 0 14 -6
26 -5 29 0 4 6 13 7 24 1 10 -6 23 -6 31 -1 8 5 21 5 30 0 9 -5 22 -5 30 0 8
5 21 5 30 0 9 -5 22 -5 30 0 7 4 24 4 36 0 14 -6 26 -5 29 0 4 6 13 7 24 1 10
-6 23 -6 31 -1 8 5 21 5 30 0 9 -5 22 -5 30 0 8 5 21 5 30 0 9 -5 22 -5 30 0
7 4 24 4 36 0 14 -6 26 -5 29 0 4 6 13 7 24 1 10 -6 23 -6 31 -1 8 5 21 5 30
0 9 -5 22 -5 30 0 8 5 21 5 30 0 9 -5 22 -5 30 0 7 4 24 4 36 0 14 -6 26 -5
29 0 4 6 13 7 24 1 10 -6 23 -6 31 -1 8 5 18 6 24 3 14 -9 86 -10 86 -1 0 4
13 3 29 -2 15 -4 34 -4 42 0 7 5 17 6 23 3 13 -9 66 -9 66 -1 0 4 13 3 29 -2
15 -4 34 -4 42 0 7 5 17 6 23 3 13 -9 66 -9 66 -1 0 4 13 3 29 -2 15 -4 34 -4
42 0 7 5 17 6 23 3 13 -9 66 -9 66 -1 0 4 13 3 29 -2 16 -4 32 -6 35 -3 7 8
84 8 92 0 3 -3 17 -2 30 3 14 6 26 6 29 0 3 -6 15 -6 30 0 15 6 25 6 25 0 0
-5 12 -5 30 0 17 5 30 5 30 0 0 -5 13 -5 30 0 17 5 30 5 30 0 0 -5 13 -5 30 0
17 5 32 5 35 0 3 -5 16 -5 30 0 15 6 25 6 25 0 0 -5 12 -5 30 0 17 5 30 5 30
0 0 -5 13 -5 30 0 17 5 30 5 30 0 0 -5 13 -5 30 0 17 5 32 5 35 0 3 -5 16 -5
30 0 17 6 25 6 25 -1 0 -6 5 -7 11 -3 14 8 134 8 148 0 6 -4 11 -3 11 3 0 6
11 6 30 1 17 -5 30 -5 30 0 0 5 13 5 30 0 16 -5 30 -6 30 -2 0 8 85 6 106 -2
8 -3 14 -1 14 4 0 5 13 5 30 0 17 -5 30 -5 30 0 0 5 13 5 30 0 17 -5 30 -5 30
0 0 5 6 7 14 4 21 -8 146 -10 146 -2 0 4 13 3 29 -2 15 -4 34 -4 42 0 7 5 17
6 23 3 13 -9 66 -9 66 -1 0 4 13 3 29 -2 15 -4 34 -4 42 0 7 5 17 6 23 3 13
-9 66 -9 66 -1 0 4 13 3 29 -2 15 -4 34 -4 42 0 7 5 17 7 21 4 4 -3 40 -7 80
-9 40 -2 103 -13 139 -24 72 -21 199 -80 199 -93 0 -4 6 -8 13 -8 15 0 133
-112 168 -160 55 -75 102 -172 119 -250 5 -19 11 -46 15 -60 7 -28 8 -204 1
-235 -20 -92 -28 -116 -64 -195 -48 -102 -143 -216 -232 -277 -127 -87 -228
-120 -385 -129 -55 -3 -106 -7 -112 -9 -7 -2 -13 0 -13 6 0 6 -4 8 -8 5 -9 -6
-46 -6 -307 -6 -104 0 -214 0 -242 -1 -29 0 -57 2 -62 5 -5 4 -12 2 -16 -4 -4
-6 -11 -7 -17 -4 -13 8 -286 7 -299 -1 -5 -4 -9 -1 -9 5 0 6 -4 9 -8 6 -9 -6
-46 -6 -307 -6 -104 0 -214 0 -242 -1 -29 0 -57 2 -62 5 -5 4 -12 2 -15 -2 -3
-5 -22 -6 -43 -3 -21 4 -56 4 -78 1 -22 -3 -51 -3 -65 0 -14 3 -42 3 -62 -1
-21 -3 -38 -4 -38 0 0 3 -26 5 -57 4 -32 -1 -85 -2 -118 -2 -106 -1 -128 -2
-137 -7 -4 -3 -8 -2 -8 3 0 4 -51 7 -112 6 -199 -5 -217 -5 -227 1 -5 4 -12 2
-16 -4 -4 -6 -11 -7 -17 -4 -13 8 -286 7 -299 -1 -5 -4 -9 -1 -9 5 0 6 -4 9
-8 6 -9 -6 -46 -6 -307 -6 -104 0 -214 0 -242 -1 -29 0 -57 2 -62 5 -5 4 -12
2 -15 -2 -3 -5 -22 -6 -43 -3 -21 4 -56 4 -78 1 -22 -3 -51 -3 -65 0 -14 3
-42 3 -62 -1 -21 -3 -38 -4 -38 0 0 3 -26 5 -57 4 -32 -1 -85 -2 -118 -2 -106
-1 -128 -2 -137 -7 -4 -3 -8 -2 -8 3 0 4 -51 7 -112 6 -199 -5 -217 -5 -227 1
-5 4 -12 2 -16 -4 -4 -6 -11 -7 -17 -4 -13 8 -286 7 -299 -1 -5 -4 -9 -1 -9 5
0 6 -4 9 -8 6 -9 -6 -46 -6 -307 -6 -104 0 -214 0 -242 -1 -29 0 -57 2 -62 5
-5 4 -12 2 -16 -4 -4 -6 -11 -7 -17 -4 -13 8 -286 7 -299 -1 -5 -4 -9 -1 -9 5
0 6 -4 9 -8 6 -9 -6 -37 -6 -352 -6 -232 0 -357 -4 -415 -14 -93 -15 -127 -21
-142 -26 -5 -1 -11 -2 -15 -1 -3 0 -30 -7 -59 -15 -29 -9 -60 -17 -68 -19 -67
-15 -307 -126 -387 -180 -22 -14 -47 -31 -58 -38 -35 -23 -121 -92 -124 -99
-2 -5 -10 -8 -18 -8 -8 0 -14 -7 -14 -15 0 -8 -4 -15 -8 -15 -9 0 -92 -80
-152 -146 -62 -69 -144 -187 -200 -289 -18 -33 -35 -63 -39 -67 -3 -4 -6 210
-5 475 0 425 5 556 20 632 2 11 7 34 9 50 18 98 108 354 140 395 6 8 21 34 33
56 93 185 344 438 553 558 39 22 218 107 234 111 5 1 17 5 25 8 33 13 111 37
135 41 14 3 33 7 43 10 9 3 33 7 52 10 19 3 46 8 60 11 14 3 63 7 109 10 45 2
85 6 88 9 3 2 16 1 29 -4 14 -6 26 -6 29 1z"/>
<path d="M1817 5443 c-1 0 -56 -4 -122 -7 -226 -11 -421 -58 -625 -152 -41
-19 -82 -38 -90 -43 -8 -6 -33 -20 -55 -31 -46 -25 -189 -126 -236 -167 -65
-56 -189 -183 -189 -193 0 -5 -4 -10 -8 -10 -10 0 -119 -149 -164 -225 -117
-198 -201 -451 -224 -675 -10 -94 -10 -1883 0 -1965 8 -64 9 -69 26 -155 12
-64 49 -201 58 -215 4 -5 7 -14 7 -20 1 -11 10 -32 71 -160 48 -102 144 -253
213 -335 52 -63 232 -240 242 -240 4 0 14 -6 21 -13 38 -36 274 -187 294 -187
2 0 32 -13 66 -29 35 -15 81 -34 103 -41 22 -7 46 -18 54 -24 8 -6 15 -9 15
-7 1 5 63 -9 131 -29 17 -4 52 -11 78 -15 27 -3 59 -9 70 -11 12 -3 63 -7 112
-9 50 -3 92 -5 95 -6 5 -1 20 0 203 1 53 1 102 -2 107 -5 6 -3 10 -2 10 2 0 5
21 6 48 3 26 -3 73 -3 105 0 32 3 62 3 67 0 6 -4 33 -3 60 0 28 4 50 4 50 1 0
-3 37 -5 82 -3 123 4 209 2 219 -4 5 -3 9 -1 9 3 0 5 21 6 48 3 26 -3 73 -3
105 0 32 3 62 3 67 0 6 -4 33 -3 60 0 28 4 50 4 50 1 0 -3 91 -5 203 -4 111 1
247 2 302 2 55 0 108 0 118 0 33 0 87 0 102 0 68 0 134 0 155 1 14 1 30 2 35
1 25 -1 461 -2 553 -1 56 1 107 -2 112 -5 6 -3 10 -2 10 2 0 5 21 6 48 3 26
-3 73 -3 105 0 32 3 62 3 67 0 6 -4 33 -3 60 0 28 4 50 4 50 1 0 -3 37 -5 82
-3 123 4 209 2 219 -4 5 -3 9 -1 9 3 0 5 21 6 48 3 26 -3 73 -3 105 0 32 3 62
3 67 0 6 -4 33 -3 60 0 28 4 50 4 50 1 0 -3 91 -5 203 -4 111 1 247 2 302 2
55 0 108 0 118 0 33 0 87 0 102 0 68 0 134 0 155 1 14 1 30 2 35 1 25 -1 461
-2 553 -1 56 1 107 -2 112 -5 6 -3 10 -2 10 2 0 5 21 6 48 3 26 -3 73 -3 105
0 32 3 62 3 67 0 6 -4 33 -3 60 0 28 4 50 4 50 1 0 -3 37 -5 82 -3 123 4 209
2 219 -4 5 -3 9 0 9 6 0 6 5 8 10 5 6 -4 50 -6 98 -5 48 1 93 1 100 1 287 -9
456 34 636 163 331 237 458 667 306 1041 -58 145 -125 237 -253 353 -20 17
-39 32 -42 32 -3 0 -26 15 -52 33 -46 32 -155 84 -191 92 -9 2 -28 8 -42 13
-30 11 -106 23 -172 27 -25 1 -51 5 -56 9 -6 3 -13 2 -17 -4 -4 -6 -12 -7 -24
-1 -10 6 -23 6 -31 1 -8 -5 -18 -6 -23 -3 -8 5 -163 6 -254 1 -24 -1 -45 1
-49 5 -3 3 -17 2 -30 -3 -14 -6 -24 -6 -24 0 0 5 -12 5 -28 1 -15 -5 -37 -5
-49 0 -13 5 -25 4 -28 -2 -4 -5 -11 -6 -17 -3 -10 6 -146 8 -255 2 -24 -1 -45
1 -49 5 -3 3 -17 2 -30 -3 -14 -6 -26 -6 -29 0 -3 6 -15 6 -30 0 -14 -5 -25
-6 -25 -2 0 4 -28 6 -62 5 -113 -3 -122 -3 -189 -3 -37 1 -71 0 -75 -1 -5 -1
-13 0 -19 1 -5 1 -39 1 -75 1 -36 -1 -72 -1 -80 -1 -56 1 -139 0 -146 -1 -5
-1 -13 0 -19 1 -12 2 -233 1 -292 -2 -24 -1 -45 1 -49 5 -3 3 -17 2 -30 -3
-14 -6 -24 -6 -24 0 0 5 -12 5 -28 1 -15 -5 -37 -5 -49 0 -13 5 -25 4 -28 -2
-4 -5 -11 -6 -17 -3 -6 4 -58 6 -115 6 -115 -2 -110 -2 -195 -2 -35 0 -82 -1
-105 -2 -24 -1 -45 1 -49 5 -3 3 -17 2 -30 -3 -14 -6 -24 -6 -24 0 0 5 -12 5
-28 1 -15 -5 -37 -5 -49 0 -13 5 -25 4 -28 -2 -4 -5 -11 -6 -17 -3 -6 4 -58 6
-115 6 -115 -2 -110 -2 -195 -2 -35 0 -82 -1 -105 -2 -24 -1 -45 1 -49 5 -3 3
-17 2 -30 -3 -14 -6 -24 -6 -24 0 0 5 -12 5 -28 1 -15 -5 -37 -5 -49 0 -13 5
-25 4 -28 -2 -4 -5 -11 -6 -17 -3 -6 4 -58 6 -115 6 -115 -2 -110 -2 -195 -2
-35 0 -82 -1 -105 -2 -24 -1 -45 1 -49 5 -3 3 -17 2 -30 -3 -14 -6 -24 -6 -24
0 0 5 -12 5 -28 1 -15 -5 -37 -5 -49 0 -13 5 -25 4 -28 -2 -4 -5 -11 -6 -17
-3 -6 4 -58 6 -115 6 -103 -2 -124 -2 -239 -2 -34 1 -66 0 -70 -1 -5 -1 -13 0
-19 1 -5 1 -39 1 -75 1 -36 -1 -72 -1 -80 -1 -56 1 -139 0 -146 -1 -5 -1 -13
0 -19 1 -22 4 -155 1 -164 -4 -5 -4 -12 -2 -16 3 -3 7 -15 7 -30 1 -15 -6 -27
-6 -30 0 -3 6 -15 6 -30 0 -14 -5 -25 -6 -25 -2 0 6 -182 6 -317 0 -24 -1 -45
1 -49 5 -3 3 -17 2 -30 -3 -13 -5 -24 -6 -24 -2 0 4 -26 7 -58 6 -254 -3 -513
165 -625 406 -40 86 -40 88 -59 185 -18 95 -13 245 11 308 6 15 8 27 5 27 -4
0 1 11 10 25 9 14 14 25 11 25 -19 0 87 170 149 238 53 58 209 162 243 162 7
0 13 4 13 9 0 5 12 11 28 14 15 3 38 8 52 12 36 9 67 15 130 21 30 2 61 7 68
9 6 2 12 1 12 -3 0 -8 86 -6 108 3 6 2 12 1 12 -3 0 -8 683 -7 704 1 8 3 17 3
20 0 3 -4 27 -5 54 -4 26 1 54 1 62 1 8 0 35 0 60 0 25 0 52 1 60 0 406 -2
581 -1 589 5 6 3 11 2 11 -2 0 -9 84 -7 108 2 6 2 12 1 12 -3 0 -8 86 -6 108
3 6 2 12 1 12 -3 0 -8 86 -6 108 3 6 2 12 1 12 -3 0 -8 884 -7 905 2 8 3 15 2
15 -2 0 -8 86 -6 108 3 6 2 12 1 12 -3 0 -8 86 -6 108 3 6 2 12 1 12 -3 0 -8
86 -6 108 3 6 2 12 1 12 -3 0 -8 683 -7 704 1 8 3 17 3 20 0 3 -4 27 -5 54 -4
26 1 54 1 62 1 8 0 35 0 60 0 25 0 52 1 60 0 406 -2 581 -1 589 5 6 3 11 2 11
-2 0 -9 84 -7 108 2 6 2 12 1 12 -3 0 -8 86 -6 108 3 6 2 12 1 12 -3 0 -8 86
-6 108 3 6 2 12 1 12 -3 0 -14 417 -3 502 13 79 16 249 80 256 97 2 4 8 8 13
8 11 0 82 46 122 80 201 168 319 414 320 670 1 76 -8 162 -22 208 -5 17 -7 32
-4 32 3 0 0 7 -7 15 -7 8 -10 15 -7 15 8 0 -37 109 -69 167 -114 207 -329 372
-559 428 -97 24 -455 42 -455 23 0 -4 -6 -5 -13 -2 -24 9 -98 10 -103 2 -3 -5
-10 -5 -16 -2 -5 4 -67 6 -137 5 -69 -1 -130 -2 -136 -2 -5 0 -75 0 -155 0
-80 0 -152 0 -160 0 -8 0 -80 0 -160 0 -80 0 -152 0 -160 0 -98 0 -321 0 -340
1 -121 5 -380 4 -380 -2 0 -4 -10 -4 -21 1 -12 4 -41 4 -65 1 -24 -4 -44 -4
-44 -1 0 3 -79 6 -175 6 -96 0 -175 -3 -175 -7 0 -4 -6 -5 -13 -2 -23 8 -98
10 -103 2 -3 -4 -11 -5 -20 -1 -22 8 -344 9 -344 1 0 -4 -10 -4 -21 1 -12 4
-41 4 -65 1 -24 -4 -44 -4 -44 -1 0 3 -79 6 -175 6 -96 0 -175 -3 -175 -7 0
-4 -6 -5 -13 -2 -23 8 -98 10 -103 2 -3 -4 -11 -5 -20 -1 -22 8 -344 9 -344 1
0 -4 -10 -4 -21 1 -12 4 -41 4 -65 1 -24 -4 -44 -4 -44 -1 0 5 -312 5 -425 1
-11 -1 -85 -1 -165 -1 -80 0 -152 0 -160 0 -8 0 -80 0 -160 0 -80 0 -152 0
-160 0 -101 0 -321 0 -340 1 -110 5 -220 4 -220 -2 0 -4 -6 -5 -13 -2 -23 8
-98 10 -103 2 -3 -4 -11 -5 -20 -1 -22 8 -344 9 -344 1 0 -4 -10 -4 -21 1 -12
4 -41 4 -65 1 -24 -4 -44 -4 -44 -1 0 5 -58 9 -63 4z m-54 -168 c20 0 37 3 37
7 0 4 14 3 30 -2 17 -5 30 -5 30 0 0 5 13 5 30 0 18 -5 30 -5 30 0 0 6 10 6
24 0 13 -5 27 -6 30 -2 8 8 103 5 116 -3 6 -3 10 -2 10 4 0 6 11 6 30 1 18 -5
30 -5 30 0 0 6 10 6 24 0 13 -5 27 -6 30 -2 8 8 103 5 116 -3 6 -3 10 -2 10 4
0 6 11 6 30 1 18 -5 30 -5 30 0 0 6 10 6 25 0 15 -6 27 -6 30 0 3 5 12 7 19 4
22 -8 156 -10 156 -2 0 4 10 4 23 -1 12 -5 31 -5 42 -1 11 4 24 5 29 2 14 -8
66 -8 66 0 0 4 10 4 23 -1 12 -5 31 -5 42 -1 11 4 24 5 29 2 14 -8 66 -8 66 0
0 4 10 4 23 -1 12 -5 31 -5 42 -1 11 4 24 5 29 2 14 -8 66 -8 66 0 0 4 10 4
23 -1 12 -5 31 -5 42 -1 11 4 24 5 29 2 14 -8 66 -8 66 0 0 4 10 4 23 -1 12
-5 31 -5 42 -1 11 4 24 5 29 2 14 -8 66 -8 66 0 0 4 10 4 23 -1 12 -5 31 -5
42 -1 11 4 24 5 29 2 14 -8 66 -8 66 0 0 4 10 4 23 -1 12 -5 31 -5 42 -1 11 4
24 5 29 2 14 -8 66 -8 66 0 0 4 11 3 24 -2 13 -5 26 -7 29 -4 9 9 62 11 78 3
8 -4 21 -4 29 1 7 4 24 4 36 0 14 -6 26 -5 29 1 4 6 13 6 23 0 9 -5 23 -6 32
-1 9 5 22 5 30 0 8 -5 21 -5 31 1 11 6 20 5 24 -1 3 -5 15 -6 28 -1 12 5 32 5
44 0 13 -5 25 -4 28 2 4 6 13 6 23 0 9 -5 23 -6 32 -1 9 5 22 5 30 0 8 -5 21
-5 31 1 11 6 20 5 24 -1 3 -5 15 -6 28 -1 12 5 32 5 44 0 13 -5 25 -4 28 2 4
6 13 6 23 0 9 -5 23 -6 32 -1 9 5 22 5 30 0 8 -5 21 -5 31 1 11 6 20 5 24 -1
3 -5 15 -6 28 -1 12 5 32 5 44 0 13 -5 25 -4 28 2 4 6 13 6 23 0 9 -5 23 -6
32 -1 9 5 22 5 30 0 8 -5 21 -5 31 1 11 6 20 5 24 -1 3 -5 15 -6 28 -1 12 5
32 5 44 0 13 -5 25 -4 28 2 4 6 13 6 23 0 9 -5 23 -6 32 -1 9 5 22 5 30 0 8
-5 21 -5 31 1 11 6 20 5 24 -1 3 -5 15 -6 28 -1 12 5 32 5 44 0 13 -5 25 -4
28 2 4 6 13 6 23 0 9 -5 23 -6 32 -1 9 5 22 5 30 0 8 -5 21 -5 31 1 11 6 20 5
24 -1 3 -5 15 -6 28 -1 12 5 32 5 44 0 13 -5 25 -4 28 2 4 6 13 6 23 0 9 -5
23 -6 32 -1 9 5 22 5 30 0 8 -5 21 -5 31 1 11 6 20 5 24 -1 3 -5 15 -6 28 -1
12 5 32 5 44 0 13 -5 25 -4 28 2 4 6 13 6 23 0 9 -5 23 -6 32 -1 9 5 22 5 30
0 8 -5 21 -5 31 1 11 6 20 5 24 -1 3 -5 15 -6 28 -1 12 5 32 5 44 0 13 -5 25
-4 28 2 4 6 13 6 23 0 9 -5 23 -6 32 -1 9 5 22 5 30 0 8 -5 21 -5 31 1 11 6
20 5 24 -1 3 -5 15 -6 28 -1 12 5 32 5 44 0 13 -5 25 -4 28 2 4 6 13 6 23 0 9
-5 23 -6 32 -1 9 5 22 5 30 0 8 -5 21 -5 31 1 11 6 20 5 24 -1 3 -6 15 -6 29
0 13 5 26 6 29 3 8 -8 137 -9 137 -1 0 4 10 4 23 -1 12 -5 31 -5 42 -1 11 4
24 5 29 2 14 -8 66 -8 66 0 0 4 10 4 23 -1 12 -5 31 -5 42 -1 11 4 24 5 29 2
14 -8 66 -8 66 0 0 4 10 4 23 -1 12 -5 31 -5 42 -1 11 4 24 5 29 2 14 -8 66
-8 66 0 0 4 10 4 23 -1 12 -5 31 -5 42 -1 11 4 24 5 29 2 14 -8 66 -8 66 0 0
4 10 4 23 -1 12 -5 31 -5 42 -1 11 4 24 5 29 2 14 -8 66 -8 66 0 0 4 10 4 23
-1 12 -5 31 -5 42 -1 11 4 24 5 29 2 14 -8 66 -8 66 0 0 4 10 4 23 -1 12 -5
31 -5 42 -1 11 4 24 5 29 2 14 -8 66 -8 66 0 0 4 11 3 24 -2 13 -5 26 -7 29
-4 8 8 88 10 93 2 3 -4 16 -3 29 2 15 6 27 6 30 0 3 -6 15 -6 30 0 15 6 25 6
25 0 0 -5 12 -5 30 0 19 5 30 5 30 -1 0 -6 4 -7 10 -4 13 8 108 11 116 3 3 -4
17 -3 30 2 14 6 24 6 24 0 0 -5 12 -5 30 0 17 5 30 6 30 2 0 -4 33 -8 73 -9
39 -1 101 -9 137 -18 67 -18 202 -81 208 -96 2 -5 9 -9 15 -9 15 0 133 -113
168 -160 55 -74 101 -172 119 -250 5 -19 11 -46 14 -60 18 -79 6 -243 -26
-340 -12 -36 -20 -67 -19 -69 2 -2 -1 -7 -6 -10 -4 -3 -19 -26 -32 -51 -49
-91 -130 -181 -216 -240 -60 -41 -178 -96 -230 -106 -52 -10 -55 -11 -57 -14
-2 -1 -14 -3 -28 -4 -14 0 -30 -5 -37 -9 -6 -4 -14 -3 -17 2 -3 4 -24 5 -46 1
-22 -4 -43 -4 -45 1 -3 4 -18 4 -34 -1 -16 -4 -32 -6 -34 -4 -8 8 -127 10
-127 2 0 -4 -11 -3 -24 2 -13 5 -26 7 -29 4 -8 -8 -88 -10 -93 -2 -3 4 -16 3
-29 -2 -15 -6 -25 -6 -25 0 0 5 -12 5 -28 1 -15 -5 -37 -5 -49 0 -13 5 -25 4
-28 -2 -4 -5 -11 -6 -17 -3 -14 9 -158 11 -158 2 0 -4 -10 -4 -22 1 -13 5 -32
5 -43 2 -11 -4 -31 -6 -45 -4 -34 5 -37 5 -107 2 -35 -2 -65 0 -69 3 -3 3 -18
2 -34 -2 -16 -4 -31 -6 -33 -4 -8 8 -127 10 -127 2 0 -4 -11 -3 -24 2 -13 5
-26 7 -29 4 -8 -8 -88 -10 -93 -2 -3 4 -16 3 -29 -2 -15 -6 -25 -6 -25 0 0 5
-12 5 -28 1 -15 -5 -37 -5 -49 0 -13 5 -25 4 -28 -2 -4 -5 -11 -6 -17 -3 -14
9 -158 11 -158 2 0 -4 -10 -4 -22 1 -13 5 -32 5 -43 2 -11 -4 -31 -6 -45 -4
-34 5 -37 5 -107 2 -35 -2 -65 0 -69 3 -3 3 -18 2 -34 -2 -16 -4 -31 -6 -33
-4 -8 8 -127 10 -127 2 0 -4 -11 -3 -24 2 -13 5 -26 7 -29 4 -8 -8 -88 -10
-93 -2 -3 4 -16 3 -29 -2 -15 -6 -25 -6 -25 0 0 5 -12 5 -28 1 -15 -5 -37 -5
-49 0 -13 5 -25 4 -28 -2 -4 -5 -11 -6 -17 -3 -14 9 -158 11 -158 2 0 -4 -10
-4 -22 1 -13 5 -32 5 -43 2 -11 -4 -31 -6 -45 -4 -34 5 -37 5 -107 2 -35 -2
-65 0 -68 3 -4 3 -18 3 -33 -1 -15 -4 -41 -4 -58 -1 -18 4 -38 4 -45 -1 -7 -4
-20 -4 -30 1 -9 5 -19 7 -21 4 -8 -7 -127 -9 -134 -2 -3 3 -18 2 -34 -2 -16
-4 -31 -6 -33 -4 -8 8 -127 10 -127 2 0 -4 -11 -3 -24 2 -13 5 -26 7 -29 4 -8
-8 -88 -10 -93 -2 -3 4 -16 3 -29 -2 -15 -6 -25 -6 -25 0 0 5 -12 5 -28 1 -15
-5 -37 -5 -49 0 -13 5 -25 4 -28 -2 -4 -5 -11 -6 -17 -3 -14 9 -158 11 -158 2
0 -4 -10 -4 -22 1 -13 5 -32 5 -43 2 -11 -4 -31 -6 -45 -4 -34 5 -37 5 -107 2
-35 -2 -65 0 -69 3 -3 3 -18 2 -34 -2 -16 -4 -31 -6 -33 -4 -8 8 -127 10 -127
2 0 -4 -11 -3 -24 2 -13 5 -26 7 -29 4 -8 -8 -88 -10 -93 -2 -3 4 -16 3 -29
-2 -15 -6 -25 -6 -25 0 0 5 -12 5 -28 1 -15 -5 -37 -5 -49 0 -13 5 -25 4 -28
-2 -4 -5 -11 -6 -17 -3 -14 9 -158 11 -158 2 0 -4 -10 -4 -22 1 -13 5 -32 5
-43 2 -11 -4 -31 -6 -45 -4 -34 5 -37 5 -107 2 -35 -2 -65 0 -69 3 -3 3 -18 2
-34 -2 -16 -4 -31 -6 -33 -4 -8 8 -127 10 -127 2 0 -4 -11 -3 -24 2 -13 5 -26
7 -29 4 -8 -8 -88 -10 -93 -2 -3 4 -16 3 -29 -2 -17 -6 -25 -6 -25 1 0 6 -4 8
-8 5 -5 -3 -44 -7 -88 -10 -43 -3 -89 -8 -101 -11 -13 -3 -31 -7 -42 -9 -109
-25 -216 -74 -325 -151 -41 -29 -152 -144 -184 -190 -15 -22 -29 -42 -32 -45
-28 -27 -104 -210 -114 -275 -4 -22 -10 -56 -13 -75 -14 -79 -5 -246 18 -334
39 -153 114 -286 223 -399 90 -92 169 -145 311 -207 20 -9 113 -36 156 -46 20
-4 177 -16 214 -15 83 0 143 0 155 0 8 -1 26 0 40 0 14 1 32 1 40 0 8 0 44 0
80 0 36 0 72 0 80 0 8 -1 26 0 40 0 30 2 862 2 939 1 30 -1 58 -3 63 -6 4 -3
8 0 8 6 0 6 4 9 9 6 7 -5 48 -7 111 -6 8 1 39 -1 68 -2 28 -2 52 0 52 4 0 4 6
5 13 3 22 -9 147 -10 147 -2 0 5 4 6 10 2 8 -5 33 -6 110 -4 8 0 39 -1 68 -3
28 -2 52 1 52 5 0 5 4 6 10 2 8 -5 33 -6 110 -4 8 0 39 -1 68 -3 28 -2 52 0
52 3 0 4 18 3 40 -1 22 -4 43 -3 46 1 3 5 9 7 14 4 5 -3 47 -6 92 -5 142 0
192 -1 200 -6 4 -3 8 0 8 6 0 6 4 9 9 6 7 -5 48 -7 111 -6 8 1 39 -1 68 -2 28
-2 52 0 52 4 0 4 6 5 13 3 22 -9 147 -10 147 -2 0 5 4 6 10 2 8 -5 33 -6 110
-4 8 0 39 -1 68 -3 28 -2 52 1 52 5 0 5 4 6 10 2 8 -5 33 -6 110 -4 8 0 39 -1
68 -3 28 -2 52 0 52 3 0 4 18 3 40 -1 22 -4 43 -3 46 1 3 5 10 6 16 3 13 -8
765 -7 778 1 6 3 10 1 10 -5 0 -6 4 -9 8 -6 7 4 84 7 132 5 8 0 44 0 80 0 36
0 72 0 80 0 8 -1 26 0 40 0 14 1 32 1 40 0 8 0 44 0 80 0 36 0 72 0 80 0 8 -1
26 0 40 0 14 1 32 1 40 0 8 0 44 0 80 0 36 0 72 0 80 0 8 -1 26 0 40 0 14 1
32 1 40 0 8 0 44 0 80 1 213 2 314 -16 445 -82 166 -83 303 -250 360 -435 14
-43 31 -174 29 -213 -5 -80 -18 -156 -36 -210 -12 -36 -20 -67 -19 -69 2 -2
-1 -7 -6 -10 -4 -3 -19 -26 -32 -51 -77 -143 -203 -252 -370 -320 -78 -32
-120 -41 -204 -45 -32 -1 -60 -5 -63 -8 -3 -3 -17 -2 -30 3 -13 5 -26 5 -28 1
-3 -5 -20 -6 -38 -2 -18 4 -52 4 -76 1 -23 -4 -45 -3 -48 1 -2 5 -16 4 -29 -1
-15 -6 -27 -6 -30 0 -3 6 -15 6 -30 0 -15 -6 -25 -6 -25 0 0 5 -12 5 -27 1
-16 -4 -41 -5 -58 -1 -16 3 -49 3 -73 -1 -23 -3 -45 -2 -48 2 -2 5 -16 4 -29
-1 -15 -6 -27 -6 -30 0 -3 6 -15 6 -30 0 -15 -6 -25 -6 -25 0 0 5 -12 5 -27 1
-16 -4 -41 -5 -58 -1 -16 3 -49 3 -73 -1 -23 -3 -45 -2 -48 2 -2 5 -16 4 -29
-1 -15 -6 -27 -6 -30 0 -3 6 -15 6 -30 0 -15 -6 -25 -6 -25 0 0 5 -12 5 -29 0
-16 -4 -32 -6 -34 -3 -3 2 -26 4 -51 3 -66 -1 -69 -1 -91 0 -11 1 -45 1 -75 0
-30 -1 -57 -1 -60 0 -18 6 -70 4 -70 -3 0 -5 -5 -5 -10 -2 -15 9 -110 12 -110
3 0 -3 -13 -3 -29 2 -16 4 -32 6 -35 3 -7 -8 -84 -8 -92 0 -3 3 -17 2 -30 -3
-14 -6 -24 -6 -24 0 0 5 -12 5 -28 1 -15 -5 -37 -5 -49 0 -13 5 -25 4 -28 -1
-4 -6 -13 -7 -24 -1 -10 6 -23 6 -31 1 -8 -5 -18 -6 -24 -3 -14 9 -86 10 -86
1 0 -4 -13 -3 -29 2 -15 4 -33 5 -40 1 -6 -4 -28 -6 -49 -3 -20 2 -41 3 -47 3
-5 0 -35 -1 -65 -1 -30 -1 -57 -1 -60 0 -16 5 -70 4 -70 -2 0 -3 -12 -3 -27 1
-16 4 -40 4 -55 0 -15 -4 -30 -4 -33 1 -3 5 -16 5 -30 0 -15 -6 -27 -6 -30 0
-3 6 -15 6 -30 0 -15 -6 -25 -6 -25 0 0 5 -12 5 -27 1 -16 -4 -41 -5 -58 -1
-16 3 -49 3 -73 -1 -23 -3 -45 -2 -48 2 -2 5 -16 4 -29 -1 -15 -6 -27 -6 -30
0 -3 6 -15 6 -30 0 -15 -6 -25 -6 -25 0 0 5 -12 5 -27 1 -16 -4 -41 -5 -58 -1
-16 3 -49 3 -73 -1 -23 -3 -45 -2 -48 2 -2 5 -16 4 -29 -1 -15 -6 -27 -6 -30
0 -3 6 -15 6 -30 0 -15 -6 -25 -6 -25 0 0 5 -12 5 -27 1 -16 -4 -41 -5 -58 -1
-16 3 -49 3 -73 -1 -23 -3 -45 -2 -48 2 -2 5 -16 4 -29 -1 -15 -6 -27 -6 -30
0 -3 6 -15 6 -30 0 -15 -6 -25 -6 -25 0 0 5 -12 5 -29 0 -16 -4 -32 -6 -34 -3
-3 2 -26 4 -51 3 -66 -1 -69 -1 -91 0 -11 1 -45 1 -75 0 -30 -1 -57 -1 -60 0
-18 6 -70 4 -70 -3 0 -5 -5 -5 -10 -2 -15 9 -110 12 -110 3 0 -3 -13 -3 -29 2
-16 4 -32 6 -35 3 -7 -8 -84 -8 -92 0 -3 3 -17 2 -30 -3 -14 -6 -24 -6 -24 0
0 5 -12 5 -28 1 -15 -5 -37 -5 -49 0 -13 5 -25 4 -28 -1 -4 -6 -13 -7 -24 -1
-10 6 -23 6 -31 1 -8 -5 -18 -6 -24 -3 -14 9 -86 10 -86 1 0 -4 -13 -3 -29 2
-15 4 -33 5 -40 1 -6 -4 -28 -6 -49 -3 -20 2 -41 3 -47 3 -5 0 -35 -1 -65 -1
-30 -1 -57 -1 -60 0 -16 5 -70 4 -70 -2 0 -3 -12 -3 -27 1 -16 4 -40 4 -55 0
-15 -4 -30 -4 -33 1 -3 5 -16 5 -30 0 -15 -6 -27 -6 -30 0 -3 6 -15 6 -30 0
-15 -6 -25 -6 -25 0 0 5 -12 5 -27 1 -16 -4 -41 -5 -58 -1 -16 3 -49 3 -73 -1
-23 -3 -45 -2 -48 2 -2 5 -16 4 -29 -1 -15 -6 -27 -6 -30 0 -3 6 -15 6 -30 0
-15 -6 -25 -6 -25 0 0 5 -12 5 -27 1 -16 -4 -41 -5 -58 -1 -16 3 -49 3 -73 -1
-23 -3 -45 -2 -48 2 -2 5 -16 4 -29 -1 -15 -6 -27 -6 -30 0 -3 6 -15 6 -30 0
-15 -6 -25 -6 -25 0 0 5 -12 5 -27 1 -16 -4 -41 -5 -58 -1 -16 3 -49 3 -73 -1
-23 -3 -45 -2 -48 2 -2 5 -16 4 -29 -1 -15 -6 -27 -6 -30 0 -3 6 -15 6 -30 0
-15 -6 -25 -6 -25 0 0 5 -12 5 -29 0 -16 -4 -32 -6 -34 -3 -3 2 -26 4 -51 3
-64 -1 -68 -1 -91 0 -11 0 -42 1 -70 1 -171 1 -253 11 -400 50 -137 37 -124
32 -215 71 -106 45 -282 146 -310 177 -3 3 -25 22 -50 41 -186 142 -371 393
-460 625 -23 60 -35 91 -37 100 -1 6 -9 35 -17 65 -22 80 -30 125 -44 250 -10
87 -8 1827 2 1910 5 36 10 74 12 85 2 11 7 34 10 50 33 190 175 499 281 615
13 14 23 29 23 33 0 5 48 57 108 115 96 96 218 191 313 246 100 58 315 146
391 160 13 2 34 7 48 10 24 6 46 10 116 22 17 2 55 6 83 8 29 2 55 6 58 10 4
3 9 3 12 -1 3 -5 23 -8 44 -8z"/>
</g>
</svg>
